<svg width="78" height="67" viewBox="0 0 78 67" fill="none" xmlns="http://www.w3.org/2000/svg">
<path d="M50.0715 4.38583C43.6757 0.745366 36.259 -0.687688 28.9673 0.308062C21.6756 1.30381 14.9148 4.67295 9.72916 9.89498C4.54356 15.117 1.22183 21.9013 0.277146 29.1998C-0.667537 36.4982 0.817399 43.9047 4.50255 50.2749C8.18769 56.6451 13.868 61.6246 20.6658 64.444C27.4637 67.2635 35.0008 67.766 42.1127 65.8739C49.2247 63.9819 55.5157 59.8005 60.0139 53.9759C64.5121 48.1512 66.9671 41.0075 66.9997 33.6482L53.4889 33.5884C53.4695 37.9796 52.0046 42.2423 49.3206 45.7178C46.6366 49.1933 42.8828 51.6882 38.6391 52.8172C34.3955 53.9462 29.8982 53.6463 25.842 51.964C21.7858 50.2817 18.3964 47.3105 16.1975 43.5094C13.9986 39.7084 13.1126 35.289 13.6762 30.9341C14.2399 26.5792 16.222 22.531 19.3162 19.4151C22.4104 16.2992 26.4445 14.2888 30.7954 13.6947C35.1463 13.1005 39.5717 13.9556 43.3881 16.1279L50.0715 4.38583Z" fill="white"/>
<path d="M60 21L75.5885 36.75H44.4115L60 21Z" fill="white"/>
</svg>
