<svg width="306" height="306" viewBox="0 0 306 306" fill="none" xmlns="http://www.w3.org/2000/svg">
<circle cx="153" cy="153" r="150.5" transform="matrix(-1 0 0 1 306 0)" stroke="#E65F5F" stroke-width="5"/>
<path d="M169 56.6005C122.6 40.7378 102.333 67.7858 98 83.2926C122.388 64.6933 151.844 67.7505 169 73.2915C175.4 75.8014 187.667 110.522 189 126C205 115.018 202.333 92.9526 199 83.2926C207 72.3107 235 78.7168 248 83.2926C236.8 69.8703 214.667 66.0063 205 65.7521C209 48.6691 224.667 40.331 232 38.2973C212.8 30.9761 195.333 35.2468 189 38.2973C159.4 23.6548 137.333 23.0447 130 24.57C155.6 30.671 166.667 48.4658 169 56.6005Z" fill="#4B964E"/>
<path d="M242 52C222 52.8 202.333 66.3333 195 73C189.667 80.6667 180.4 90 186 66C191.6 42 215.667 28 227 24L242 52Z" fill="#7EB685"/>
</svg>
