<svg width="306" height="306" viewBox="0 0 306 306" fill="none" xmlns="http://www.w3.org/2000/svg">
<circle cx="153" cy="153" r="153" fill="#E65F5F"/>
<path d="M127 67C173.4 46.2 193.667 81.6667 198 102C173.612 77.6117 144.156 81.6204 127 88.8861C120.6 92.1772 108.333 137.705 107 158C91 143.6 93.6667 114.667 97 102C89 87.6 61 96 48 102C59.2 84.4 81.3333 79.3333 91 79C87 56.6 71.3333 45.6667 64 43C83.2 33.4 100.667 39 107 43C136.6 23.8 158.667 23 166 25C140.4 33 129.333 56.3333 127 67Z" fill="#4B964E"/>
<path d="M54 52C74 52.8 93.6667 66.3333 101 73C106.333 80.6667 115.6 90 110 66C104.4 42 80.3333 28 69 24L54 52Z" fill="#669F68"/>
<path d="M28.8771 122.9C22.6438 140.32 16.1154 153.914 14.2954 153.262C12.4754 152.611 10.7667 133.92 17 116.5C23.2333 99.0801 35.048 89.5279 36.868 90.1792C38.688 90.8304 35.1103 105.48 28.8771 122.9Z" fill="#F59999"/>
<path d="M45.5 75.5C43.9471 78.7366 43 82 39 82C36.5 79 39 75.8333 41 73.5C44 70 45.5 68.6397 46.8118 68.6397C47.5 70.5 47.0529 72.2634 45.5 75.5Z" fill="#F59999"/>
</svg>
