<svg width="306" height="306" viewBox="0 0 306 306" fill="none" xmlns="http://www.w3.org/2000/svg">
<circle cx="153" cy="153" r="153" transform="matrix(-1 0 0 1 306 0)" fill="#E65F5F"/>
<path d="M179 67C132.6 46.2 112.333 81.6667 108 102C132.388 77.6117 161.844 81.6204 179 88.8861C185.4 92.1772 197.667 137.705 199 158C215 143.6 212.333 114.667 209 102C217 87.6 245 96 258 102C246.8 84.4 224.667 79.3333 215 79C219 56.6 234.667 45.6667 242 43C222.8 33.4 205.333 39 199 43C169.4 23.8 147.333 23 140 25C165.6 33 176.667 56.3333 179 67Z" fill="#4B964E"/>
<path d="M252 52C232 52.8 212.333 66.3333 205 73C199.667 80.6667 190.4 90 196 66C201.6 42 225.667 28 237 24L252 52Z" fill="#7EB685"/>
<path d="M277.123 122.9C283.356 140.32 289.885 153.914 291.705 153.262C293.525 152.611 295.233 133.92 289 116.5C282.767 99.0801 270.952 89.5279 269.132 90.1792C267.312 90.8304 270.89 105.48 277.123 122.9Z" fill="#F59999"/>
<path d="M260.5 75.5C262.053 78.7366 263 82 267 82C269.5 79 267 75.8333 265 73.5C262 70 260.5 68.6397 259.188 68.6397C258.5 70.5 258.947 72.2634 260.5 75.5Z" fill="#F59999"/>
</svg>
